<?xml version="1.0" encoding="UTF-8"?>
<svg width="24px" height="15px" viewBox="0 0 24 15" version="1.1" xmlns="http://www.w3.org/2000/svg" xmlns:xlink="http://www.w3.org/1999/xlink">
    <title>arena</title>
    <g id="Page-1" stroke="none" stroke-width="1" fill="none" fill-rule="evenodd">
        <g id="Desktop-Copy-10" transform="translate(-645.000000, -528.000000)" fill="#000000" fill-rule="nonzero">
            <g id="Group-2" transform="translate(564.000000, 523.000000)">
                <g id="arena" transform="translate(81.000000, 5.000000)">
                    <path d="M23.6711523,9.91088742 L20.3575629,7.30680795 C20.154755,7.14786755 20.154755,6.88688742 20.3575629,6.7274702 L23.6711523,4.12386755 C23.8744371,3.96476821 23.9591523,3.69568212 23.8598146,3.52625166 C23.7603179,3.35761589 23.4824901,3.29737748 23.2431258,3.3930596 L19.3031523,4.96227815 C19.0634702,5.05811921 18.8377748,4.92699338 18.8018543,4.67125828 L18.2094834,0.464582781 C18.173245,0.209324503 17.981245,0 17.7820927,0 C17.5837351,0 17.3915762,0.209324503 17.3559735,0.464900662 L16.7631258,4.67157616 C16.7268874,4.92731126 16.5015099,5.05843709 16.2616689,4.96259603 L12.386702,3.41912583 C12.1463841,3.32344371 11.7549139,3.32344371 11.5152318,3.41912583 L7.63978808,4.96259603 C7.40010596,5.05843709 7.1744106,4.92731126 7.13849007,4.67157616 L6.54611921,0.464900662 C6.50972185,0.209324503 6.31756291,0 6.11904636,0 C5.92021192,0 5.7277351,0.209324503 5.69197351,0.464900662 L5.09928477,4.67157616 C5.0632053,4.92731126 4.83766887,5.05843709 4.59798675,4.96259603 L0.658013245,3.39337748 C0.418490066,3.29753642 0.141139073,3.35793377 0.0416423841,3.52656954 C-0.0576953642,3.696 0.0270198675,3.96508609 0.229827815,4.12418543 L3.54357616,6.72778808 C3.74670199,6.88704636 3.74670199,7.14802649 3.54357616,7.30712583 L0.229668874,9.91088742 C0.0268609272,10.0701457 -0.0578543046,10.3552848 0.0414834437,10.5442649 C0.140980132,10.7330861 0.418331126,10.8092185 0.657536424,10.7132185 L4.56222517,9.14511258 C4.80206623,9.04927152 5.02537748,9.17976159 5.05891391,9.43565563 L5.6226755,13.6787285 C5.65668874,13.9341457 5.87984106,14.1433113 6.11872848,14.1433113 C6.35698013,14.1433113 6.58029139,13.9343046 6.61446358,13.6787285 L7.17870199,9.43565563 C7.21223841,9.17976159 7.43634437,9.04927152 7.67491391,9.14511258 L11.5155497,10.6865166 C11.754755,10.7828344 12.1462252,10.7828344 12.3859073,10.6865166 L16.2259073,9.14511258 C16.4649536,9.04927152 16.6884238,9.17976159 16.722596,9.43565563 L17.2868344,13.6787285 C17.3205298,13.9341457 17.5438411,14.1433113 17.7819338,14.1433113 C18.0206623,14.1433113 18.2439735,13.9343046 18.2779868,13.6787285 L18.8419073,9.43565563 C18.8763974,9.17976159 19.0993907,9.04927152 19.338596,9.14511258 L23.2434437,10.7132185 C23.4821722,10.8092185 23.76,10.7330861 23.8594967,10.5442649 C23.9591523,10.3552848 23.8744371,10.0701457 23.6711523,9.91088742 Z M15.2404768,7.34002649 L12.3223311,9.58649007 C12.1180927,9.74384106 11.7830464,9.74384106 11.5794437,9.58649007 L8.66082119,7.34002649 C8.45658278,7.18235762 8.45499338,6.92328477 8.65764238,6.76370861 L11.5819868,4.46018543 C11.7844768,4.30045033 12.1165033,4.30045033 12.3191523,4.46018543 L15.2436556,6.76370861 C15.4466225,6.92328477 15.4450331,7.18235762 15.2404768,7.34002649 Z" id="Shape"></path>
                </g>
            </g>
        </g>
    </g>
</svg>