<?xml version="1.0" encoding="UTF-8"?>
<svg width="25px" height="19px" viewBox="0 0 25 19" version="1.1" xmlns="http://www.w3.org/2000/svg" xmlns:xlink="http://www.w3.org/1999/xlink">
    <title>noun_Email_1569998</title>
    <g id="Page-1" stroke="none" stroke-width="1" fill="none" fill-rule="evenodd">
        <g id="Desktop-Copy-10" transform="translate(-564.000000, -526.000000)" fill="#000000" fill-rule="nonzero">
            <g id="Group-2" transform="translate(564.000000, 523.000000)">
                <g id="noun_Email_1569998" transform="translate(0.000000, 3.000000)">
                    <g id="Group" transform="translate(0.000000, 0.182234)">
                        <path d="M2.67857054,0.103485714 C1.21009762,0.103485714 -7.44047619e-07,1.26517143 -7.44047619e-07,2.67491429 L-7.44047619e-07,14.6749143 C-7.44047619e-07,16.0846571 1.21009762,17.2463429 2.67857054,17.2463429 L22.321428,17.2463429 C23.7899009,17.2463429 24.9999993,16.0846571 24.9999993,14.6749143 L24.9999993,2.67491429 C24.9999993,1.26517143 23.7899009,0.103485714 22.321428,0.103485714 L2.67857054,0.103485714 Z M2.82738006,1.81777143 L22.1633179,1.81777143 L13.1045378,9.84457143 C12.6801539,10.2206286 12.3002759,10.2204 11.8768592,9.84457143 L2.82738006,1.81777143 Z M1.78571339,3.21954286 L10.6584812,11.1034857 C11.6824756,12.0124286 13.2988176,12.0110286 14.3229158,11.1034857 L23.2142851,3.21954286 L23.2142851,14.6749143 C23.2142851,15.1646 22.8315021,15.5320571 22.321428,15.5320571 L2.67857054,15.5320571 C2.16849613,15.5320571 1.78571339,15.1646 1.78571339,14.6749143 L1.78571339,3.21954286 Z" id="Shape"></path>
                    </g>
                </g>
            </g>
        </g>
    </g>
</svg>